<?xml version="1.0" encoding="UTF-8"?>
<svg id="Camada_2" data-name="Camada 2" xmlns="http://www.w3.org/2000/svg" viewBox="0 0 122.1 75">
  <defs>
    <style>
      .cls-1 {
        fill: #fff;
        fill-rule: evenodd;
      }
    </style>
  </defs>
  <g id="Camada_1-2" data-name="Camada 1">
    <path class="cls-1" d="M22,0h77.1s21.9,2.72,21.9,23c0,18.54-16.17,22.4-16.13,22.55l17.23,29.45h-14l-16-28.9h-11.1v28.9h-13v-38h29s11.1-1.24,11.1-13.9-11.1-14-11.1-14H22s-10,.78-10,10c0,11.02,11.1,10,11.1,10,0,0,22.69,6.16,27.9,9,5.21,4.64,8,9.83,8,15.9s-3.82,21-21,21H0v-11l38,1s8.1.76,8.1-9c0-8.33-8-10-8-10,0,0-23.65-6.06-30-9C3.56,34.06.1,28.28.1,18S11.86,0,22,0Z"/>
  </g>
</svg>